<svg width="289" height="260" viewBox="0 0 289 260" fill="none" xmlns="http://www.w3.org/2000/svg">
<path d="M35.4889 251.164V255.09C35.4889 257.305 37.5817 259.099 40.1628 259.099H250.119C252.702 259.099 254.794 257.305 254.794 255.09V251.164H35.4889Z" fill="#939598"/>
<path d="M34.118 248.501H256.319L227.242 222.986H68.6384L34.118 248.501Z" fill="#AFB1B4"/>
<path d="M234.876 237.8H57.6504L71.6663 227.441H223.071L234.876 237.8Z" fill="#C5C6C8"/>
<path d="M173.585 246.937H118.88L123.205 240.75H169.942L173.585 246.937Z" fill="#C5C6C8"/>
<path d="M256.319 248.499H34.118V253.844H256.319V248.499Z" fill="#BCBEC0"/>
<path d="M229.035 220.644C229.035 222.859 227.239 224.653 225.023 224.653H70.876C68.6624 224.653 66.8655 222.859 66.8655 220.644V122.185C66.8655 119.971 68.6624 118.176 70.876 118.176H225.023C227.239 118.176 229.035 119.971 229.035 122.185V220.644Z" fill="#E7E8E9"/>
<path d="M227.22 219.004C227.22 221.144 225.466 222.879 223.298 222.879H72.539C70.373 222.879 68.6171 221.144 68.6171 219.004V123.841C68.6171 121.7 70.373 119.966 72.539 119.966H223.298C225.466 119.966 227.22 121.7 227.22 123.841V219.004Z" fill="#D1D3D4"/>
<path d="M217.482 128.419H77.1465V212.624H217.482V128.419Z" fill="#F15A29"/>
<path d="M125.659 212.624H77.1465V128.419H191.998C186.45 139.275 180.188 149.763 173.361 159.802C163.077 174.919 151.254 189.01 138.047 201.655C134.063 205.469 129.921 209.12 125.659 212.624Z" fill="#F68B42"/>
<path d="M112.111 222.879H72.5389C70.3729 222.879 68.6169 221.144 68.6169 219.004V123.841C68.6169 121.7 70.3729 119.966 72.5389 119.966H196.08C194.747 122.81 193.365 125.631 191.935 128.428H77.0832V212.633H125.595C123.018 214.752 120.396 216.816 117.74 218.831C115.903 220.223 114.026 221.582 112.111 222.879Z" fill="#E5E6E7"/>
<path d="M151.632 124.363C151.632 125.564 150.659 126.535 149.458 126.535C148.259 126.535 147.287 125.564 147.287 124.363C147.287 123.164 148.259 122.193 149.458 122.193C150.659 122.193 151.632 123.164 151.632 124.363Z" fill="#939598"/>
<path d="M243.28 165.374C243.28 168.455 240.76 170.976 237.68 170.976H149.613C146.532 170.976 144.012 168.455 144.012 165.374V153.44C144.012 150.359 146.532 147.839 149.613 147.839H237.68C240.76 147.839 243.28 150.359 243.28 153.44V165.374Z" fill="white"/>
<path d="M243.283 165.376H242.443C242.443 166.685 241.909 167.872 241.044 168.739C240.177 169.604 238.99 170.137 237.682 170.138H149.615C148.307 170.137 147.12 169.604 146.253 168.739C145.387 167.872 144.854 166.685 144.853 165.376V153.442C144.854 152.133 145.387 150.947 146.253 150.08C147.12 149.214 148.307 148.68 149.615 148.68H237.682C238.99 148.68 240.177 149.214 241.044 150.08C241.909 150.947 242.443 152.133 242.443 153.442V165.376H244.123V153.442C244.119 149.894 241.229 147.004 237.682 147.001H149.615C146.067 147.004 143.177 149.894 143.174 153.442V165.376C143.177 168.924 146.067 171.814 149.615 171.817H237.682C241.229 171.814 244.119 168.924 244.123 165.376H243.283Z" fill="#121F44"/>
<path d="M157.761 155.438L159.637 161.867L161.345 155.891C161.528 155.266 161.663 154.839 161.751 154.61C161.839 154.382 162.004 154.164 162.246 153.957C162.489 153.749 162.821 153.646 163.243 153.646C163.671 153.646 164.007 153.749 164.249 153.957C164.491 154.164 164.662 154.388 164.76 154.631C164.859 154.874 164.996 155.293 165.172 155.891L166.879 161.867L168.776 155.438C168.903 154.973 169.005 154.638 169.082 154.431C169.159 154.224 169.289 154.04 169.472 153.883C169.654 153.725 169.918 153.646 170.263 153.646C170.607 153.646 170.906 153.765 171.158 154.004C171.412 154.243 171.538 154.525 171.538 154.847C171.538 155.143 171.429 155.589 171.211 156.186L168.861 163.08C168.657 163.663 168.499 164.085 168.387 164.345C168.274 164.605 168.097 164.837 167.854 165.04C167.611 165.244 167.28 165.346 166.858 165.346C166.422 165.346 166.079 165.237 165.831 165.019C165.581 164.802 165.396 164.534 165.277 164.218C165.157 163.902 165.027 163.491 164.887 162.985L163.243 157.377L161.651 162.985C161.44 163.765 161.212 164.353 160.965 164.75C160.719 165.147 160.287 165.346 159.669 165.346C159.353 165.346 159.084 165.284 158.862 165.161C158.641 165.038 158.457 164.863 158.31 164.635C158.162 164.406 158.031 164.136 157.919 163.823C157.807 163.511 157.719 163.262 157.656 163.08L155.326 156.186C155.094 155.539 154.979 155.093 154.979 154.847C154.979 154.538 155.101 154.261 155.347 154.015C155.593 153.769 155.895 153.646 156.254 153.646C156.732 153.646 157.055 153.781 157.224 154.051C157.392 154.322 157.572 154.784 157.761 155.438Z" fill="#121F44"/>
<path d="M175.277 155.438L177.153 161.867L178.861 155.891C179.044 155.266 179.178 154.839 179.266 154.61C179.354 154.382 179.519 154.164 179.762 153.957C180.005 153.749 180.337 153.646 180.758 153.646C181.187 153.646 181.523 153.749 181.765 153.957C182.007 154.164 182.178 154.388 182.276 154.631C182.374 154.874 182.512 155.293 182.688 155.891L184.395 161.867L186.292 155.438C186.418 154.973 186.521 154.638 186.598 154.431C186.675 154.224 186.805 154.04 186.988 153.883C187.17 153.725 187.434 153.646 187.778 153.646C188.123 153.646 188.422 153.765 188.674 154.004C188.928 154.243 189.054 154.525 189.054 154.847C189.054 155.143 188.945 155.589 188.727 156.186L186.377 163.08C186.172 163.663 186.015 164.085 185.902 164.345C185.789 164.605 185.612 164.837 185.37 165.04C185.127 165.244 184.796 165.346 184.374 165.346C183.938 165.346 183.595 165.237 183.347 165.019C183.097 164.802 182.912 164.534 182.793 164.218C182.673 163.902 182.543 163.491 182.403 162.985L180.758 157.377L179.167 162.985C178.956 163.765 178.727 164.353 178.481 164.75C178.235 165.147 177.803 165.346 177.185 165.346C176.868 165.346 176.6 165.284 176.378 165.161C176.157 165.038 175.973 164.863 175.826 164.635C175.678 164.406 175.547 164.136 175.435 163.823C175.323 163.511 175.235 163.262 175.172 163.08L172.842 156.186C172.61 155.539 172.495 155.093 172.495 154.847C172.495 154.538 172.617 154.261 172.863 154.015C173.109 153.769 173.411 153.646 173.769 153.646C174.248 153.646 174.571 153.781 174.74 154.051C174.908 154.322 175.088 154.784 175.277 155.438Z" fill="#121F44"/>
<path d="M192.869 155.438L194.745 161.867L196.453 155.891C196.636 155.266 196.771 154.839 196.859 154.61C196.947 154.382 197.112 154.164 197.354 153.957C197.597 153.749 197.929 153.646 198.351 153.646C198.779 153.646 199.115 153.749 199.357 153.957C199.599 154.164 199.77 154.388 199.868 154.631C199.967 154.874 200.104 155.293 200.28 155.891L201.987 161.867L203.884 155.438C204.011 154.973 204.113 154.638 204.19 154.431C204.267 154.224 204.397 154.04 204.58 153.883C204.762 153.725 205.026 153.646 205.371 153.646C205.715 153.646 206.014 153.765 206.266 154.004C206.52 154.243 206.646 154.525 206.646 154.847C206.646 155.143 206.537 155.589 206.319 156.186L203.969 163.08C203.765 163.663 203.607 164.085 203.495 164.345C203.382 164.605 203.205 164.837 202.962 165.04C202.719 165.244 202.388 165.346 201.966 165.346C201.53 165.346 201.188 165.237 200.939 165.019C200.689 164.802 200.504 164.534 200.385 164.218C200.265 163.902 200.135 163.491 199.995 162.985L198.351 157.377L196.759 162.985C196.548 163.765 196.32 164.353 196.074 164.75C195.827 165.147 195.395 165.346 194.777 165.346C194.461 165.346 194.192 165.284 193.97 165.161C193.749 165.038 193.565 164.863 193.418 164.635C193.27 164.406 193.139 164.136 193.027 163.823C192.915 163.511 192.827 163.262 192.764 163.08L190.434 156.186C190.202 155.539 190.087 155.093 190.087 154.847C190.087 154.538 190.209 154.261 190.455 154.015C190.701 153.769 191.003 153.646 191.362 153.646C191.84 153.646 192.163 153.781 192.332 154.051C192.5 154.322 192.68 154.784 192.869 155.438Z" fill="#121F44"/>
<path d="M208.821 151.856V167.531H210.5V151.856" fill="#121F44"/>
<path d="M245.723 172.374C247.256 172.031 247.409 171.085 246.068 170.273L218.535 153.598C217.192 152.784 216.438 153.356 216.858 154.868L225.473 185.883C225.894 187.394 226.846 187.501 227.59 186.12L230.332 181.031C231.077 179.65 232.461 179.543 233.408 180.793L241.962 192.077C242.91 193.327 244.707 193.573 245.958 192.625L247.026 191.818C248.276 190.87 248.524 189.071 247.576 187.821L239.024 176.536C238.075 175.286 238.552 173.983 240.085 173.64L245.723 172.374Z" fill="#121F44"/>
<path d="M217.397 202.398C213.005 193.953 201.656 194.283 198.044 200.804C197.603 192.931 183.904 188.54 179.599 198.791C181.052 186.851 165.85 182.459 159.851 189.891C157.604 180.598 143.555 177.055 136.236 189.205C139.163 177.392 123.963 167.934 113.943 176.942C98.6276 160.84 114.21 131.269 115.791 124.951C113.532 124.632 112.227 122.854 110.803 121.241C106.714 124.631 94.2598 148.616 92.2087 153.634C87.4799 165.202 82.2722 161.713 82.2722 161.713C75.657 158.138 60.4556 168.947 70.7063 182.073C63.8327 180.433 61.1315 192.256 68.5953 196.985C57.7529 199.35 62.82 214.551 77.0608 212.634H217.397V202.398Z" fill="white"/>
<path d="M135.666 122.627C125.553 135.409 103.205 140.565 103.205 140.565C103.205 140.565 102.553 113.1 110.665 102.847C118.777 92.5928 137.722 94.337 137.722 94.337C137.722 94.337 145.779 109.845 135.666 122.627Z" fill="#FCB116"/>
<path d="M134.233 116.606C127.188 125.51 111.652 129.126 111.652 129.126C111.652 129.126 111.235 110.024 116.886 102.882C122.537 95.7395 135.699 96.9257 135.699 96.9257C135.699 96.9257 141.278 107.702 134.233 116.606Z" fill="#FFC906"/>
<path d="M155.161 134.055C148.221 128.565 148.743 109.556 148.743 109.556C148.743 109.556 176.833 83.7995 179.615 85.9999C188.518 93.0441 157.942 136.255 155.161 134.055Z" fill="#F26521"/>
<path d="M181.021 88.2464C178.314 95.8544 174.521 103.086 169.975 109.752C166.706 114.544 163.41 119.651 159.605 124.037C157.438 126.533 155.033 128.711 152.161 130.052C152.964 131.683 153.952 133.076 155.175 134.043C157.74 136.073 183.951 99.471 181.021 88.2464Z" fill="#F5801F"/>
<path d="M95.4285 86.7712C102.367 92.2609 120.747 87.3819 120.747 87.3819C120.747 87.3819 139.35 54.1189 136.57 51.9185C127.666 44.875 92.6475 84.5715 95.4285 86.7712Z" fill="#F26521"/>
<path d="M134.053 51.0837C127.271 55.4662 121.104 60.8211 115.663 66.7787C111.752 71.063 107.541 75.4448 104.148 80.1583C102.217 82.8412 100.651 85.6816 100.007 88.7856C98.2352 88.3785 96.6521 87.7385 95.4285 86.7705C92.8635 84.7407 122.454 50.8142 134.053 51.0837Z" fill="#F5801F"/>
<path d="M147.81 113.401C146.184 115.455 143.549 116.077 141.925 114.791L116.902 94.9944C115.277 93.7078 115.274 91.0007 116.899 88.946L117.317 88.4195C118.941 86.3663 121.576 85.7454 123.202 87.0312L148.224 106.828C149.85 108.113 149.851 110.82 148.226 112.874L147.81 113.401Z" fill="#F26521"/>
<path d="M207.487 5.99113C207.487 5.99113 173.641 0.15732 139.176 43.7194C122.314 65.0322 116.215 88.7672 116.215 88.7672L132.072 101.313L147.928 113.858C147.928 113.858 169.623 102.461 186.485 81.1489C220.95 37.5868 207.487 5.99113 207.487 5.99113Z" fill="white"/>
<path d="M146.378 87.2954C143.27 86.1868 139.779 89.0784 137.26 90.5686C136.171 91.2129 133.55 92.9557 132.482 91.3191C130.572 88.3953 132.827 82.6515 133.715 79.7965C135.944 72.641 139.038 65.585 142.1 58.7473C148.451 44.5703 158.581 33.3757 171.198 24.465C177.111 20.2897 183.369 16.5157 189.916 13.4103C195.68 10.679 202.044 9.41292 207.593 6.2606C207.527 6.08559 207.487 5.99113 207.487 5.99113C207.487 5.99113 173.641 0.15732 139.176 43.7194C122.314 65.0322 116.215 88.7672 116.215 88.7672L147.928 113.858C147.928 113.858 148.498 113.557 149.514 112.972C143.403 106.479 141.823 95.9652 146.378 87.2954Z" fill="#D1D3D4"/>
<path d="M209.104 34.2685C212.099 16.7107 207.535 5.9899 207.535 5.9899C207.535 5.9899 196.051 4.01503 179.653 10.9692L209.104 34.2685Z" fill="#F26521"/>
<path d="M184.309 67.2382C177.695 75.5954 165.559 77.0115 157.201 70.3986C148.842 63.7842 147.428 51.6487 154.041 43.2908C160.654 34.9322 172.789 33.5161 181.149 40.1297C189.508 46.7426 190.922 58.8796 184.309 67.2382Z" fill="#F26521"/>
<path d="M180.745 64.4315C175.68 70.8343 166.384 71.918 159.981 66.8524C156.603 64.1804 154.704 60.3244 154.409 56.3358C154.334 55.2938 154.364 54.2445 154.515 53.2055C154.584 52.6885 154.681 52.1796 154.809 51.6802C155.153 50.2919 155.702 48.9445 156.472 47.6726C156.791 47.1249 157.155 46.5969 157.559 46.0866C162.624 39.6845 171.927 38.6037 178.325 43.6658C181.501 46.1788 183.368 49.7368 183.825 53.4632C184.001 54.897 183.968 56.3629 183.718 57.7952C183.633 58.3078 183.513 58.8145 183.372 59.3109C183.088 60.3053 182.696 61.2829 182.192 62.2165C181.788 62.9868 181.305 63.7242 180.745 64.4315Z" fill="#00B4A8"/>
<path d="M182.792 57.5974L154.826 51.6816C155.17 50.2933 155.719 48.9459 156.489 47.674L183.557 53.4038C183.507 54.8185 183.253 56.2318 182.792 57.5974Z" fill="#61C7C8"/>
<path d="M183.842 57.3363C184.023 56.0483 184.032 54.7449 183.875 53.462L183.877 53.4627C183.95 54.0624 183.988 54.6673 183.988 55.2728C183.987 55.9619 183.939 56.6516 183.842 57.3363Z" fill="#61C7C8"/>
<path d="M180.497 61.8667L154.408 56.3448C154.383 55.9868 154.369 55.628 154.369 55.2684C154.369 54.583 154.416 53.8962 154.514 53.2145L182.19 59.0703C181.74 60.0434 181.176 60.9814 180.497 61.8667Z" fill="#61C7C8"/>
<path d="M169.173 70.0526C165.962 70.0526 162.727 69.0106 160.011 66.863C159.253 66.2625 158.569 65.6028 157.961 64.8947C158.569 65.602 159.253 66.2618 160.011 66.8615C162.726 69.0099 165.961 70.0519 169.173 70.0519C173.536 70.0519 177.858 68.1283 180.775 64.4407C181.335 63.7333 181.818 62.996 182.222 62.2256C182.726 61.292 183.118 60.3145 183.402 59.3201C183.469 59.0828 183.531 58.8427 183.588 58.601C183.112 60.6689 182.181 62.6664 180.777 64.4414C177.859 68.1297 173.538 70.0526 169.173 70.0526ZM157.958 64.8918C157.955 64.8881 157.952 64.8844 157.949 64.8808C157.952 64.8844 157.955 64.8881 157.958 64.8918ZM183.727 57.9193C183.735 57.8812 183.741 57.8431 183.747 57.8043C183.774 57.652 183.799 57.499 183.82 57.3459C183.793 57.5371 183.763 57.7282 183.727 57.9193Z" fill="#96471A"/>
<path d="M169.171 70.0457C165.959 70.0457 162.723 69.0037 160.008 66.8553C159.25 66.2556 158.567 65.5959 157.959 64.8885C157.958 64.8878 157.957 64.8863 157.956 64.8856C157.953 64.8819 157.949 64.8783 157.946 64.8746C157.943 64.8702 157.938 64.8658 157.935 64.8607C155.862 62.4362 154.681 59.4567 154.445 56.3974C155.2 59.4765 156.945 62.3374 159.623 64.4565C162.338 66.6042 165.573 67.6462 168.786 67.6462C173.149 67.6462 177.47 65.7233 180.388 62.0357C180.434 61.9778 180.48 61.9193 180.524 61.8607L182.22 62.2195C181.815 62.9898 181.332 63.7272 180.773 64.4345C177.855 68.1221 173.534 70.0457 169.171 70.0457ZM183.399 59.3139L182.218 59.0642C182.44 58.5839 182.635 58.0947 182.802 57.599L183.745 57.7982C183.739 57.837 183.732 57.8751 183.725 57.9131C183.684 58.1409 183.637 58.3686 183.585 58.5949C183.529 58.8365 183.467 59.0767 183.399 59.3139ZM183.851 53.4655L183.567 53.4054C183.587 52.846 183.576 52.2865 183.532 51.7293C183.672 52.3012 183.779 52.8819 183.851 53.4655Z" fill="#00867F"/>
<path d="M183.718 57.7975L182.776 57.5984C183.237 56.2327 183.49 54.8195 183.54 53.4048L183.824 53.4648C183.981 54.7477 183.971 56.0511 183.791 57.3391C183.769 57.4922 183.745 57.6452 183.718 57.7975Z" fill="#269096"/>
<path d="M182.262 62.2146L180.567 61.8558C181.247 60.9706 181.811 60.0325 182.261 59.0594L183.442 59.3091C183.158 60.3035 182.766 61.281 182.262 62.2146Z" fill="#269096"/>
<path d="M41.832 50.7108V57.2907C41.832 57.5163 42.0158 57.6993 42.2421 57.6993C42.4676 57.6993 42.6507 57.5163 42.6507 57.2907V50.7108C42.6507 50.4845 42.4676 50.3015 42.2421 50.3015C42.0158 50.3015 41.832 50.4845 41.832 50.7108Z" fill="white"/>
<path d="M45.4887 53.5762H38.9666C38.741 53.5762 38.5573 53.7592 38.5573 53.9855C38.5573 54.211 38.741 54.3941 38.9666 54.3941H45.4887C45.7142 54.3941 45.898 54.211 45.898 53.9855C45.898 53.7592 45.7142 53.5762 45.4887 53.5762Z" fill="white"/>
<path d="M3.27466 136.425V143.005C3.27466 143.231 3.45772 143.414 3.68398 143.414C3.90952 143.414 4.09331 143.231 4.09331 143.005V136.425C4.09331 136.199 3.90952 136.016 3.68398 136.016C3.45772 136.016 3.27466 136.199 3.27466 136.425Z" fill="white"/>
<path d="M6.93218 139.309H0.409326C0.183794 139.309 0 139.493 0 139.719C0 139.944 0.183794 140.128 0.409326 140.128H6.93218C7.15771 140.128 7.34077 139.944 7.34077 139.719C7.34077 139.493 7.15771 139.309 6.93218 139.309Z" fill="white"/>
<path d="M50.9131 101.383H59.1524C59.3779 101.383 59.5609 101.2 59.5609 100.974C59.5609 100.748 59.3779 100.565 59.1524 100.565H50.9131C50.6868 100.565 50.5038 100.748 50.5038 100.974C50.5038 101.2 50.6868 101.383 50.9131 101.383Z" fill="white"/>
<path d="M61.9558 101.383H64.2448C64.4704 101.383 64.6534 101.2 64.6534 100.974C64.6534 100.748 64.4704 100.565 64.2448 100.565H61.9558C61.7303 100.565 61.5465 100.748 61.5465 100.974C61.5465 101.2 61.7303 101.383 61.9558 101.383Z" fill="white"/>
<path d="M66.2968 101.383H68.5858C68.8113 101.383 68.9951 101.2 68.9951 100.974C68.9951 100.748 68.8113 100.565 68.5858 100.565H66.2968C66.0712 100.565 65.8875 100.748 65.8875 100.974C65.8875 101.2 66.0712 101.383 66.2968 101.383Z" fill="white"/>
<path d="M52.5125 104.239H60.7524C60.978 104.239 61.1618 104.055 61.1618 103.83C61.1618 103.604 60.978 103.421 60.7524 103.421H52.5125C52.2869 103.421 52.1031 103.604 52.1031 103.83C52.1031 104.055 52.2869 104.239 52.5125 104.239Z" fill="white"/>
<path d="M63.5551 104.239H65.8441C66.0696 104.239 66.2534 104.055 66.2534 103.83C66.2534 103.604 66.0696 103.421 65.8441 103.421H63.5551C63.3295 103.421 63.1458 103.604 63.1458 103.83C63.1458 104.055 63.3295 104.239 63.5551 104.239Z" fill="white"/>
<path d="M67.8961 104.239H70.1837C70.4092 104.239 70.5923 104.055 70.5923 103.83C70.5923 103.604 70.4092 103.421 70.1837 103.421H67.8961C67.6706 103.421 67.4868 103.604 67.4868 103.83C67.4868 104.055 67.6706 104.239 67.8961 104.239Z" fill="white"/>
<path d="M10.8427 197.854H19.0826C19.3082 197.854 19.492 197.671 19.492 197.445C19.492 197.219 19.3082 197.036 19.0826 197.036H10.8427C10.6171 197.036 10.4333 197.219 10.4333 197.445C10.4333 197.671 10.6171 197.854 10.8427 197.854Z" fill="white"/>
<path d="M21.8855 197.854H24.1745C24.4001 197.854 24.5839 197.671 24.5839 197.445C24.5839 197.219 24.4001 197.036 24.1745 197.036H21.8855C21.66 197.036 21.4762 197.219 21.4762 197.445C21.4762 197.671 21.66 197.854 21.8855 197.854Z" fill="white"/>
<path d="M26.2263 197.854H28.5139C28.7394 197.854 28.9225 197.671 28.9225 197.445C28.9225 197.219 28.7394 197.036 28.5139 197.036H26.2263C26.0008 197.036 25.817 197.219 25.817 197.445C25.817 197.671 26.0008 197.854 26.2263 197.854Z" fill="white"/>
<path d="M12.442 200.71H20.6805C20.9061 200.71 21.0891 200.527 21.0891 200.301C21.0891 200.075 20.9061 199.892 20.6805 199.892H12.442C12.2165 199.892 12.0327 200.075 12.0327 200.301C12.0327 200.527 12.2165 200.71 12.442 200.71Z" fill="white"/>
<path d="M23.4846 200.71H25.7736C25.9992 200.71 26.1822 200.527 26.1822 200.301C26.1822 200.075 25.9992 199.892 25.7736 199.892H23.4846C23.2584 199.892 23.0753 200.075 23.0753 200.301C23.0753 200.527 23.2584 200.71 23.4846 200.71Z" fill="white"/>
<path d="M27.8257 200.71H30.1147C30.3402 200.71 30.5233 200.527 30.5233 200.301C30.5233 200.075 30.3402 199.892 30.1147 199.892H27.8257C27.6002 199.892 27.4164 200.075 27.4164 200.301C27.4164 200.527 27.6002 200.71 27.8257 200.71Z" fill="white"/>
<path d="M180.034 0.409265V6.98923C180.034 7.21477 180.218 7.39856 180.444 7.39856C180.67 7.39856 180.853 7.21477 180.853 6.98923V0.409265C180.853 0.183733 180.67 -6.10352e-05 180.444 -6.10352e-05C180.218 -6.10352e-05 180.034 0.183733 180.034 0.409265Z" fill="white"/>
<path d="M183.691 3.2937H177.169C176.942 3.2937 176.759 3.47676 176.759 3.7023C176.759 3.92856 176.942 4.11162 177.169 4.11162H183.691C183.916 4.11162 184.099 3.92856 184.099 3.7023C184.099 3.47676 183.916 3.2937 183.691 3.2937Z" fill="white"/>
<path d="M258.247 104.013V110.593C258.247 110.819 258.431 111.002 258.656 111.002C258.882 111.002 259.065 110.819 259.065 110.593V104.013C259.065 103.787 258.882 103.604 258.656 103.604C258.431 103.604 258.247 103.787 258.247 104.013Z" fill="white"/>
<path d="M261.904 106.898H255.382C255.156 106.898 254.972 107.082 254.972 107.307C254.972 107.533 255.156 107.716 255.382 107.716H261.904C262.129 107.716 262.313 107.533 262.313 107.307C262.313 107.082 262.129 106.898 261.904 106.898Z" fill="white"/>
<path d="M238.652 44.6082V51.1874C238.652 51.4137 238.835 51.5967 239.061 51.5967C239.287 51.5967 239.471 51.4137 239.471 51.1874V44.6082C239.471 44.3819 239.287 44.1989 239.061 44.1989C238.835 44.1989 238.652 44.3819 238.652 44.6082Z" fill="white"/>
<path d="M242.308 47.4926H235.787C235.561 47.4926 235.377 47.6764 235.377 47.9019C235.377 48.1282 235.561 48.3113 235.787 48.3113H242.308C242.534 48.3113 242.717 48.1282 242.717 47.9019C242.717 47.6764 242.534 47.4926 242.308 47.4926Z" fill="white"/>
<path d="M90.3502 23.2336H98.5895C98.815 23.2336 98.9988 23.0498 98.9988 22.8243C98.9988 22.5988 98.815 22.415 98.5895 22.415H90.3502C90.124 22.415 89.9409 22.5988 89.9409 22.8243C89.9409 23.0498 90.124 23.2336 90.3502 23.2336Z" fill="white"/>
<path d="M101.393 23.2336H103.681C103.907 23.2336 104.09 23.0498 104.09 22.8243C104.09 22.5988 103.907 22.415 103.681 22.415H101.393C101.167 22.415 100.984 22.5988 100.984 22.8243C100.984 23.0498 101.167 23.2336 101.393 23.2336Z" fill="white"/>
<path d="M105.734 23.2336H108.022C108.248 23.2336 108.431 23.0498 108.431 22.8243C108.431 22.5988 108.248 22.415 108.022 22.415H105.734C105.508 22.415 105.324 22.5988 105.324 22.8243C105.324 23.0498 105.508 23.2336 105.734 23.2336Z" fill="white"/>
<path d="M91.9495 26.0888H100.187C100.414 26.0888 100.597 25.9057 100.597 25.6795C100.597 25.4539 100.414 25.2709 100.187 25.2709H91.9495C91.7232 25.2709 91.5402 25.4539 91.5402 25.6795C91.5402 25.9057 91.7232 26.0888 91.9495 26.0888Z" fill="white"/>
<path d="M102.992 26.0888H105.28C105.505 26.0888 105.688 25.9057 105.688 25.6795C105.688 25.4539 105.505 25.2709 105.28 25.2709H102.992C102.766 25.2709 102.583 25.4539 102.583 25.6795C102.583 25.9057 102.766 26.0888 102.992 26.0888Z" fill="white"/>
<path d="M107.333 26.0888H109.622C109.848 26.0888 110.031 25.9057 110.031 25.6795C110.031 25.4539 109.848 25.2709 109.622 25.2709H107.333C107.108 25.2709 106.924 25.4539 106.924 25.6795C106.924 25.9057 107.108 26.0888 107.333 26.0888Z" fill="white"/>
<path d="M208.317 80.204H216.556C216.781 80.204 216.965 80.021 216.965 79.7954C216.965 79.5692 216.781 79.3861 216.556 79.3861H208.317C208.09 79.3861 207.907 79.5692 207.907 79.7954C207.907 80.021 208.09 80.204 208.317 80.204Z" fill="white"/>
<path d="M219.36 80.204H221.648C221.873 80.204 222.057 80.021 222.057 79.7954C222.057 79.5692 221.873 79.3861 221.648 79.3861H219.36C219.133 79.3861 218.95 79.5692 218.95 79.7954C218.95 80.021 219.133 80.204 219.36 80.204Z" fill="white"/>
<path d="M223.7 80.204H225.988C226.213 80.204 226.397 80.021 226.397 79.7954C226.397 79.5692 226.213 79.3861 225.988 79.3861H223.7C223.475 79.3861 223.291 79.5692 223.291 79.7954C223.291 80.021 223.475 80.204 223.7 80.204Z" fill="white"/>
<path d="M209.916 83.0607H218.157C218.383 83.0607 218.567 82.8769 218.567 82.6513C218.567 82.4258 218.383 82.242 218.157 82.242H209.916C209.69 82.242 209.507 82.4258 209.507 82.6513C209.507 82.8769 209.69 83.0607 209.916 83.0607Z" fill="white"/>
<path d="M220.959 83.0607H223.245C223.47 83.0607 223.654 82.8769 223.654 82.6513C223.654 82.4258 223.47 82.242 223.245 82.242H220.959C220.733 82.242 220.549 82.4258 220.549 82.6513C220.549 82.8769 220.733 83.0607 220.959 83.0607Z" fill="white"/>
<path d="M225.3 83.0607H227.587C227.813 83.0607 227.996 82.8769 227.996 82.6513C227.996 82.4258 227.813 82.242 227.587 82.242H225.3C225.074 82.242 224.89 82.4258 224.89 82.6513C224.89 82.8769 225.074 83.0607 225.3 83.0607Z" fill="white"/>
<path d="M251.697 198.682V205.262C251.697 205.488 251.88 205.671 252.107 205.671C252.332 205.671 252.516 205.488 252.516 205.262V198.682C252.516 198.457 252.332 198.273 252.107 198.273C251.88 198.273 251.697 198.457 251.697 198.682Z" fill="white"/>
<path d="M255.353 201.567H248.832C248.606 201.567 248.423 201.75 248.423 201.977C248.423 202.202 248.606 202.386 248.832 202.386H255.353C255.579 202.386 255.763 202.202 255.763 201.977C255.763 201.75 255.579 201.567 255.353 201.567Z" fill="white"/>
<path d="M269.318 158.291H277.557C277.782 158.291 277.965 158.108 277.965 157.882C277.965 157.656 277.782 157.473 277.557 157.473H269.318C269.093 157.473 268.909 157.656 268.909 157.882C268.909 158.108 269.093 158.291 269.318 158.291Z" fill="white"/>
<path d="M280.361 158.291H282.648C282.874 158.291 283.057 158.108 283.057 157.882C283.057 157.657 282.874 157.473 282.648 157.473H280.361C280.135 157.473 279.951 157.657 279.951 157.882C279.951 158.108 280.135 158.291 280.361 158.291Z" fill="white"/>
<path d="M284.702 158.291H286.991C287.216 158.291 287.399 158.108 287.399 157.882C287.399 157.657 287.216 157.473 286.991 157.473H284.702C284.476 157.473 284.292 157.657 284.292 157.882C284.292 158.108 284.476 158.291 284.702 158.291Z" fill="white"/>
<path d="M270.917 161.146H279.156C279.381 161.146 279.564 160.963 279.564 160.738C279.564 160.512 279.381 160.328 279.156 160.328H270.917C270.692 160.328 270.508 160.512 270.508 160.738C270.508 160.963 270.692 161.146 270.917 161.146Z" fill="white"/>
<path d="M281.96 161.146H284.249C284.475 161.146 284.658 160.963 284.658 160.738C284.658 160.512 284.475 160.328 284.249 160.328H281.96C281.734 160.328 281.551 160.512 281.551 160.738C281.551 160.963 281.734 161.146 281.96 161.146Z" fill="white"/>
<path d="M286.301 161.146H288.591C288.817 161.146 289 160.963 289 160.738C289 160.512 288.817 160.328 288.591 160.328H286.301C286.075 160.328 285.892 160.512 285.892 160.738C285.892 160.963 286.075 161.146 286.301 161.146Z" fill="white"/>
</svg>
